<?xml version="1.0" encoding="UTF-8"?>
<svg width="423px" height="423px" viewBox="0 0 423 423" version="1.1" xmlns="http://www.w3.org/2000/svg" xmlns:xlink="http://www.w3.org/1999/xlink">
    <!-- Generator: Sketch 58 (84663) - https://sketch.com -->
    <title>Combined Shape</title>
    <desc>Created with Sketch.</desc>
    <g id="Page-1" stroke="none" stroke-width="1" fill="none" fill-rule="evenodd" fill-opacity="0.85">
        <path d="M211.5,0 C328.308225,0 423,94.6917754 423,211.5 C423,328.308225 328.308225,423 211.5,423 C94.6917754,423 0,328.308225 0,211.5 C0,94.6917754 94.6917754,0 211.5,0 Z M211.5,40 C116.783165,40 40,116.783165 40,211.5 C40,306.216835 116.783165,383 211.5,383 C306.216835,383 383,306.216835 383,211.5 C383,116.783165 306.216835,40 211.5,40 Z M197.143921,79 L229.143921,79 C233.478836,79 237.008464,82.4478378 237.140114,86.7508207 L237.143921,87 L237.143921,223 C237.143921,225.244721 236.219414,227.273512 234.730393,228.726377 C234.554369,228.966134 234.362906,229.197886 234.156317,229.420637 L233.944697,229.64035 L166.497854,295.964129 C163.440132,299.021851 158.523007,299.086909 155.386161,296.159303 L155.184146,295.964129 L132.556729,273.336712 C129.499006,270.27899 129.433949,265.361865 132.361555,262.225019 L132.556729,262.023004 L189.143583,206.377 L189.143921,87 C189.143921,82.6650857 192.591759,79.1354571 196.894742,79.0038068 L197.143921,79 L229.143921,79 Z" id="Combined-Shape" fill="#000000" transform="translate(211.500000, 211.500000) scale(-1, 1) translate(-211.500000, -211.500000) "></path>
    </g>
</svg>